<svg class="icon"  fill= '#fff' style="width: 1em;height: 1em;vertical-align: middle;fill: currentColor;overflow: hidden;" viewBox="0 0 1024 1024" version="1.1" xmlns="http://www.w3.org/2000/svg" p-id="7671"><path d="M798.208 340.48H855.04c0-95.232-76.8-171.52-171.52-171.52v56.832c62.976 0 114.688 51.2 114.688 114.688zM225.792 683.52H168.448c0 95.232 76.8 171.52 171.52 171.52v-56.832c-62.464 0-114.176-51.2-114.176-114.688zM712.192 628.736l-32.768 93.696h69.12l-32.256-93.696zM856.064 425.472h-228.352v114.176c0 48.64-38.4 86.528-86.528 86.528H426.496v229.376c0 31.744 25.6 56.832 56.832 56.832h372.224c31.744 0 56.832-25.6 56.832-56.832V482.816c0.512-31.744-24.576-57.344-56.32-57.344z m-71.168 402.944l-20.992-61.44h-100.352l-21.504 61.44h-56.32l92.16-247.296h72.704l91.648 247.296h-57.344zM540.672 111.616H167.936c-31.744 0-56.832 25.6-56.832 56.832h0.512v372.736c0 31.744 25.6 56.832 56.832 56.832h372.224c31.744 0 56.832-25.6 56.832-56.832V168.448c0.512-31.744-25.088-56.832-56.832-56.832z m-49.664 167.936H380.928v197.12H327.68V279.552H217.6v-46.592h273.408v46.592z" p-id="7672"></path></svg>