<svg width="168" height="26" viewBox="0 0 168 26" fill="none" xmlns="http://www.w3.org/2000/svg">
<path fill-rule="evenodd" clip-rule="evenodd" d="M43.9172 8.79167C43.9172 10.1063 43.8351 11.0512 43.7118 11.6264C43.4653 12.5713 42.9724 13.3108 42.1918 13.8037C41.288 14.3789 39.8911 14.6665 38.0424 14.6665H36.5635V23.4581H30.7708V14.6665H29.2919C27.4432 14.6665 26.0874 14.3789 25.1836 13.8037C24.403 13.3108 23.91 12.6123 23.6635 11.6264C23.4992 11.0512 23.4581 10.1063 23.4581 8.79167H38.1246V0H43.9994V8.79167H43.9172ZM20.5413 23.4581H14.6665V14.6665H5.87482V23.4581H0C0 19.2266 0 14.9951 0 10.7636C0 9.6544 0.657321 8.83276 2.05413 8.79167H14.6665V0H20.5413V23.4581ZM67.211 17.5833C67.211 18.898 67.1289 19.8429 67.0056 20.418C66.7591 21.3629 66.2661 22.1024 65.4856 22.5954C64.5818 23.1706 63.185 23.4581 61.3362 23.4581H52.5446C50.6959 23.4581 49.3401 23.1706 48.4363 22.5954C47.6558 22.1024 47.1628 21.404 46.9163 20.418C46.752 19.8429 46.7109 18.898 46.7109 17.5833V8.79167H50.6137C51.9694 8.79167 52.5035 9.4079 52.5856 10.8047V17.5833H61.3773V14.6665H67.2521V17.5833H67.211ZM67.211 8.79167H61.3362V5.8748H46.6698C46.6698 4.56016 46.7519 3.61527 46.8752 3.04012C47.1217 2.09522 47.6147 1.35574 48.3953 0.862748C49.2991 0.287593 50.6959 0 52.5446 0H61.3362C63.185 0 64.5407 0.287593 65.4445 0.862748C66.2251 1.35574 66.718 2.05414 66.9645 3.04012C67.1289 3.61527 67.1699 4.56016 67.1699 5.8748V8.79167H67.211Z" fill="white"/>
<path fill-rule="evenodd" clip-rule="evenodd" d="M3.90284 5.8748H0V0H5.87482C5.87482 1.27356 5.87482 2.54711 5.87482 3.82067C5.83374 5.21748 5.25857 5.8748 3.90284 5.8748Z" fill="white"/>
<path fill-rule="evenodd" clip-rule="evenodd" d="M27.3199 5.8748H23.417V0H29.2919C29.2919 1.27356 29.2919 2.54711 29.2919 3.82067C29.2097 5.21748 28.6756 5.8748 27.3199 5.8748Z" fill="white"/>
<path fill-rule="evenodd" clip-rule="evenodd" d="M125.425 0.369753C125.425 0.575166 125.425 0.739481 125.425 0.944893C125.425 1.84871 124.768 2.05413 123.946 2.05413H121.317V0.369753H125.425ZM138.695 10.5171L139.722 13.7216C140.091 14.9951 140.913 15.406 142.351 15.3649H143.214L141.612 10.5171H138.695ZM134.463 10.5171L133.436 13.5983C133.066 14.8719 132.204 15.406 130.766 15.406H129.903L131.505 10.5582H134.463V10.5171ZM125.425 4.39584C125.425 4.60125 125.425 4.76559 125.425 4.971C125.425 5.87482 124.768 6.08021 123.946 6.08021H121.317V4.39584H125.425ZM118.441 0.123243L116.715 3.98501C116.14 5.4229 114.949 5.8748 112.895 5.8748H111.662L114.209 0.123243H118.441ZM103.939 0.16434L105.664 4.02608C106.239 5.46397 107.431 5.9159 109.485 5.9159H110.717L108.17 0.16434H103.939ZM97.2013 0.16434L98.9268 4.02608C99.5019 5.46397 100.693 5.9159 102.747 5.9159H103.98L101.433 0.16434H97.2013ZM111.498 9.85981L113.1 13.5162C113.675 14.9541 114.867 15.406 116.921 15.406H118.153L115.688 9.85981H111.498ZM162.399 0.944893C162.399 3.90284 162.399 6.8197 162.399 9.77764C162.399 11.5853 160.879 12.1604 158.784 12.1193V0.944893H162.399ZM145.227 4.2315L149.171 0.123243H154.183L158.003 4.2315C157.264 4.2315 156.566 4.2315 155.826 4.2315C154.635 4.19041 153.69 3.77959 153.156 3.20443L151.759 1.76654C151.266 2.21845 150.773 2.87579 150.28 3.3277C149.499 4.0261 148.513 4.19042 147.445 4.19042H145.227V4.2315ZM147.486 5.17641H157.387V9.49008C157.346 11.1745 155.744 11.5031 154.265 11.462H150.978V9.98305C151.595 9.98305 152.211 9.98305 152.827 9.98305C153.32 9.98305 153.649 9.77766 153.649 9.28467V6.73755H150.075C149.623 6.73755 149.458 7.10729 149.458 7.43595V13.927C152.17 13.927 154.84 13.927 157.552 13.927C157.51 15.0773 156.812 15.406 155.99 15.406H147.938C146.459 15.406 145.802 14.7486 145.761 13.3108C145.761 11.0923 145.761 8.956 145.761 6.65538C145.761 5.83373 146.295 5.2175 147.486 5.17641ZM163.96 12.7767V0H167.617V12.8999C167.617 14.913 165.563 15.447 163.96 15.447H160.181V13.9681C161.126 13.9681 161.947 13.9681 162.892 13.9681C163.509 13.9681 163.96 13.5983 163.96 12.7767ZM121.645 9.32574H125.096C125.096 10.8047 125.096 11.8729 125.096 13.3518C125.096 14.7897 123.782 15.7346 121.645 15.6114V9.32574ZM138.284 1.6844L137.668 2.71146H142.844V7.80568C142.844 9.57223 141.57 9.73657 140.502 9.73657H138.202V13.6394C138.161 14.9951 137.01 15.4881 135.572 15.447H134.011V14.0502C134.176 14.0502 134.34 14.0502 134.504 14.0502C134.874 14.0502 135.038 13.7216 135.038 13.434V9.69549H130.807C130.807 7.76462 130.807 6.08023 130.807 4.14935C130.807 3.3277 131.259 2.71146 132.368 2.71146H134.052L134.669 1.6844H130.889C130.149 1.64332 129.821 2.09521 129.821 2.54712C129.821 6.24455 129.821 10.0241 129.821 13.7216C129.821 15.2005 128.342 15.8579 126.616 15.8168C126.616 11.0512 126.616 6.6143 126.616 1.88981C126.657 0.985996 127.233 0.328655 128.794 0.328655H143.419V1.72547H138.284V1.6844ZM133.929 5.01207V5.66939H139.105V6.90186H133.929V8.38085C135.326 8.38085 137.257 8.38085 138.736 8.38085C139.311 8.42193 139.681 8.09325 139.64 7.5181V4.14935C137.955 4.14935 136.394 4.14935 134.71 4.14935C134.176 4.14935 133.929 4.51908 133.929 5.01207ZM118.934 7.14837V8.58626H96.7904V7.14837H118.934ZM103.898 9.85981L102.296 13.5162C101.72 14.9541 100.529 15.406 98.4749 15.406H97.2424L99.7074 9.85981H103.898ZM75.7973 0.123243H80.0699L78.5087 1.93088C78.5087 3.94393 78.5087 5.62832 78.5087 7.64137C78.5087 9.28467 76.7011 10.2296 74.4827 10.0652V3.69743H72.7572L75.7973 0.123243ZM81.5899 9.77764H85.616V11.462H94.2844V12.941H85.616C85.616 13.2286 85.616 13.6394 85.616 13.927C85.5749 15.3649 83.9316 15.8579 81.5899 15.7346V12.9821H72.6339C72.6339 12.3248 72.6339 12.1604 72.6339 11.5031H81.5899V9.77764ZM79.4947 6.73755L82.1651 5.25856V0.0821701H86.1912V2.99902L89.9297 0.862748H94.9007L86.1912 5.83372C86.1912 6.1213 86.1912 6.77862 86.1912 7.0662C86.1912 7.51811 86.4788 7.76461 87.0128 7.76461H94.2844V9.28467H84.4246C83.2332 9.24359 82.2061 8.54518 82.2061 7.35378V6.73755H79.4947Z" fill="white"/>
<path d="M78.0241 25.3892H77.2523V22.6957H74.227V25.3892H73.4552V19.4119H74.227V22.0088H77.2523V19.4119H78.0241V25.3892Z" fill="white"/>
<path d="M85.1777 19.4119L83.2097 23.1896V25.3892H82.4341V23.2089L80.5162 19.4119H81.3999L82.6926 22.059C82.6952 22.0616 82.7428 22.1889 82.8354 22.441H82.8469C82.8778 22.333 82.9305 22.2069 83.0052 22.0629L84.3557 19.4119H85.1777Z" fill="white"/>
<path d="M91.8217 25.1422C91.3818 25.3737 90.83 25.4895 90.1663 25.4895C89.3097 25.4895 88.6254 25.2181 88.1134 24.6753C87.6015 24.1299 87.3455 23.4096 87.3455 22.5143C87.3455 21.5522 87.6336 20.7779 88.2099 20.1913C88.7861 19.6048 89.518 19.3115 90.4056 19.3115C90.9767 19.3115 91.4487 19.3926 91.8217 19.5546V20.3611C91.3947 20.1244 90.9252 20.0061 90.4133 20.0061C89.747 20.0061 89.2042 20.2286 88.7849 20.6737C88.3655 21.1162 88.1559 21.7143 88.1559 22.468C88.1559 23.1832 88.3514 23.7517 88.7424 24.1736C89.1334 24.593 89.6454 24.8026 90.2782 24.8026C90.8699 24.8026 91.3844 24.6689 91.8217 24.4013V25.1422Z" fill="white"/>
<path d="M101.973 20.0025H100.234V25.3362H99.4521V20.0025H97.7209V19.31H101.973V20.0025Z" fill="white"/>
<path d="M108.093 25.3362H104.852V19.31H107.957V20.0025H105.63V21.9321H107.786V22.6207H105.63V24.6476H108.093V25.3362Z" fill="white"/>
<path d="M115.344 25.0872C114.9 25.3206 114.344 25.4373 113.675 25.4373C112.811 25.4373 112.121 25.1637 111.605 24.6164C111.089 24.0666 110.831 23.3404 110.831 22.4378C110.831 21.4679 111.122 20.6872 111.703 20.0959C112.284 19.5045 113.021 19.2089 113.916 19.2089C114.492 19.2089 114.968 19.2906 115.344 19.454V20.267C114.913 20.0284 114.44 19.9091 113.924 19.9091C113.252 19.9091 112.705 20.1335 112.282 20.5822C111.859 21.0282 111.648 21.6313 111.648 22.3912C111.648 23.1122 111.845 23.6854 112.239 24.1107C112.634 24.5334 113.15 24.7448 113.788 24.7448C114.384 24.7448 114.903 24.61 115.344 24.3402V25.0872Z" fill="white"/>
<path d="M122.974 25.3362H122.196V22.6207H119.146V25.3362H118.367V19.31H119.146V21.9282H122.196V19.31H122.974V25.3362Z" fill="white"/>
<path d="M131.12 25.3362H130.198L127.167 20.6483C127.082 20.516 127.013 20.385 126.961 20.2554H126.938C126.958 20.3902 126.969 20.6716 126.969 21.0996V25.3362H126.198V19.31H127.175L130.124 23.9162C130.264 24.134 130.347 24.2728 130.373 24.3324H130.388C130.362 24.1613 130.349 23.8682 130.349 23.4532V19.31H131.12V25.3362Z" fill="white"/>
<path d="M133.898 22.3951C133.898 21.4225 134.162 20.6483 134.688 20.0725C135.215 19.4968 135.928 19.2089 136.828 19.2089C137.665 19.2089 138.34 19.4903 138.851 20.0531C139.362 20.6159 139.617 21.3486 139.617 22.2511C139.617 23.2289 139.355 24.0044 138.831 24.5775C138.307 25.1507 137.607 25.4373 136.73 25.4373C135.875 25.4373 135.189 25.1559 134.672 24.5931C134.156 24.0303 133.898 23.2976 133.898 22.3951ZM134.715 22.3328C134.715 23.0616 134.901 23.6464 135.272 24.0874C135.645 24.5257 136.131 24.7448 136.73 24.7448C137.374 24.7448 137.878 24.5347 138.244 24.1146C138.612 23.6918 138.796 23.1018 138.796 22.3445C138.796 21.5664 138.616 20.966 138.256 20.5433C137.898 20.1205 137.406 19.9091 136.781 19.9091C136.166 19.9091 135.668 20.1322 135.287 20.5783C134.906 21.0244 134.715 21.6092 134.715 22.3328Z" fill="white"/>
<path d="M145.568 25.3362H142.39V19.31H143.168V24.6476H145.568V25.3362Z" fill="white"/>
<path d="M147.886 22.3951C147.886 21.4225 148.149 20.6483 148.675 20.0725C149.202 19.4968 149.915 19.2089 150.815 19.2089C151.653 19.2089 152.327 19.4903 152.838 20.0531C153.349 20.6159 153.604 21.3486 153.604 22.2511C153.604 23.2289 153.342 24.0044 152.819 24.5775C152.295 25.1507 151.594 25.4373 150.718 25.4373C149.862 25.4373 149.176 25.1559 148.66 24.5931C148.144 24.0303 147.886 23.2976 147.886 22.3951ZM148.703 22.3328C148.703 23.0616 148.888 23.6464 149.259 24.0874C149.632 24.5257 150.119 24.7448 150.718 24.7448C151.361 24.7448 151.865 24.5347 152.231 24.1146C152.599 23.6918 152.784 23.1018 152.784 22.3445C152.784 21.5664 152.603 20.966 152.243 20.5433C151.885 20.1205 151.393 19.9091 150.768 19.9091C150.154 19.9091 149.656 20.1322 149.274 20.5783C148.893 21.0244 148.703 21.6092 148.703 22.3328Z" fill="white"/>
<path d="M160.932 24.9238C160.331 25.2661 159.651 25.4373 158.894 25.4373C158.022 25.4373 157.32 25.1624 156.785 24.6126C156.254 24.0601 155.988 23.3236 155.988 22.4028C155.988 21.4717 156.282 20.7066 156.871 20.1075C157.46 19.5084 158.214 19.2089 159.135 19.2089C159.786 19.2089 160.337 19.3126 160.788 19.5201V20.3604C160.306 20.057 159.732 19.9052 159.065 19.9052C158.409 19.9052 157.868 20.1296 157.443 20.5783C157.017 21.027 156.805 21.6183 156.805 22.3523C156.805 23.107 157.001 23.6944 157.392 24.1146C157.784 24.5347 158.313 24.7448 158.979 24.7448C159.439 24.7448 159.829 24.6566 160.15 24.4803V22.8502H158.843V22.1616H160.932V24.9238Z" fill="white"/>
<path d="M168 19.31L166.016 23.1187V25.3362H165.234V23.1381L163.3 19.31H164.191L165.495 21.9788C165.497 21.9814 165.545 22.1098 165.639 22.3639H165.65C165.681 22.255 165.735 22.1279 165.81 21.9827L167.171 19.31H168Z" fill="white"/>
</svg>
