<svg width="168" height="25" viewBox="0 0 168 25" fill="none" xmlns="http://www.w3.org/2000/svg">
<path fill-rule="evenodd" clip-rule="evenodd" d="M43.9172 8.56031C43.9172 9.84036 43.8351 10.7604 43.7118 11.3204C43.4653 12.2404 42.9724 12.9605 42.1918 13.4405C41.288 14.0005 39.8911 14.2805 38.0424 14.2805H36.5635V22.8408H30.7708V14.2805H29.2919C27.4432 14.2805 26.0874 14.0005 25.1836 13.4405C24.403 12.9605 23.91 12.2804 23.6635 11.3204C23.4992 10.7604 23.4581 9.84036 23.4581 8.56031H38.1246V0H43.9994V8.56031H43.9172ZM20.5413 22.8408H14.6665V14.2805H5.87482V22.8408H0C0 18.7207 0 14.6005 0 10.4804C0 9.40034 0.657321 8.60031 2.05413 8.56031H14.6665V0H20.5413V22.8408ZM67.211 17.1206C67.211 18.4006 67.1289 19.3207 67.0056 19.8807C66.7591 20.8007 66.2661 21.5208 65.4856 22.0008C64.5818 22.5608 63.185 22.8408 61.3362 22.8408H52.5446C50.6959 22.8408 49.3401 22.5608 48.4363 22.0008C47.6558 21.5208 47.1628 20.8407 46.9163 19.8807C46.752 19.3207 46.7109 18.4006 46.7109 17.1206V8.56031H50.6137C51.9694 8.56031 52.5035 9.16032 52.5856 10.5204V17.1206H61.3773V14.2805H67.2521V17.1206H67.211ZM67.211 8.56031H61.3362V5.7202H46.6698C46.6698 4.44015 46.7519 3.52013 46.8752 2.96011C47.1217 2.04008 47.6147 1.32006 48.3953 0.840044C49.2991 0.280025 50.6959 0 52.5446 0H61.3362C63.185 0 64.5407 0.280025 65.4445 0.840044C66.2251 1.32006 66.718 2.00008 66.9645 2.96011C67.1289 3.52013 67.1699 4.44015 67.1699 5.7202V8.56031H67.211Z" fill="#545150"/>
<path fill-rule="evenodd" clip-rule="evenodd" d="M3.90284 5.7202H0V0H5.87482C5.87482 1.24004 5.87482 2.48008 5.87482 3.72013C5.83374 5.08018 5.25857 5.7202 3.90284 5.7202Z" fill="#04577C"/>
<path fill-rule="evenodd" clip-rule="evenodd" d="M27.3199 5.7202H23.417V0H29.2919C29.2919 1.24004 29.2919 2.48008 29.2919 3.72013C29.2097 5.08018 28.6756 5.7202 27.3199 5.7202Z" fill="#04577C"/>
<path fill-rule="evenodd" clip-rule="evenodd" d="M125.425 0.360022C125.425 0.56003 125.425 0.720021 125.425 0.920028C125.425 1.80006 124.768 2.00007 123.946 2.00007H121.317V0.360022H125.425ZM138.695 10.2404L139.722 13.3605C140.091 14.6005 140.913 15.0005 142.351 14.9605H143.214L141.612 10.2404H138.695ZM134.463 10.2404L133.436 13.2405C133.066 14.4805 132.204 15.0005 130.766 15.0005H129.903L131.505 10.2804H134.463V10.2404ZM125.425 4.28016C125.425 4.48016 125.425 4.64018 125.425 4.84019C125.425 5.72022 124.768 5.9202 123.946 5.9202H121.317V4.28016H125.425ZM118.441 0.119999L116.715 3.88014C116.14 5.28019 114.949 5.7202 112.895 5.7202H111.662L114.209 0.119999H118.441ZM103.939 0.160015L105.664 3.92013C106.239 5.32018 107.431 5.76021 109.485 5.76021H110.717L108.17 0.160015H103.939ZM97.2013 0.160015L98.9268 3.92013C99.5019 5.32018 100.693 5.76021 102.747 5.76021H103.98L101.433 0.160015H97.2013ZM111.498 9.60034L113.1 13.1605C113.675 14.5605 114.867 15.0005 116.921 15.0005H118.153L115.688 9.60034H111.498ZM162.399 0.920028C162.399 3.80013 162.399 6.64023 162.399 9.52033C162.399 11.2804 160.879 11.8404 158.784 11.8004V0.920028H162.399ZM145.227 4.12014L149.171 0.119999H154.183L158.003 4.12014C157.264 4.12014 156.566 4.12014 155.826 4.12014C154.635 4.08014 153.69 3.68013 153.156 3.12011L151.759 1.72006C151.266 2.16007 150.773 2.80011 150.28 3.24013C149.499 3.92015 148.513 4.08015 147.445 4.08015H145.227V4.12014ZM147.486 5.04019H157.387V9.24034C157.346 10.8804 155.744 11.2004 154.265 11.1604H150.978V9.72034C151.595 9.72034 152.211 9.72034 152.827 9.72034C153.32 9.72034 153.649 9.52035 153.649 9.04034V6.56024H150.075C149.623 6.56024 149.458 6.92026 149.458 7.24027V13.5605C152.17 13.5605 154.84 13.5605 157.552 13.5605C157.51 14.6805 156.812 15.0005 155.99 15.0005H147.938C146.459 15.0005 145.802 14.3605 145.761 12.9605C145.761 10.8004 145.761 8.72031 145.761 6.48023C145.761 5.68021 146.295 5.08019 147.486 5.04019ZM163.96 12.4405V0H167.617V12.5605C167.617 14.5205 165.563 15.0405 163.96 15.0405H160.181V13.6005C161.126 13.6005 161.947 13.6005 162.892 13.6005C163.509 13.6005 163.96 13.2405 163.96 12.4405ZM121.645 9.08033H125.096C125.096 10.5204 125.096 11.5604 125.096 13.0005C125.096 14.4005 123.782 15.3205 121.645 15.2005V9.08033ZM138.284 1.64007L137.668 2.64011H142.844V7.60027C142.844 9.32033 141.57 9.48034 140.502 9.48034H138.202V13.2805C138.161 14.6005 137.01 15.0805 135.572 15.0405H134.011V13.6805C134.176 13.6805 134.34 13.6805 134.504 13.6805C134.874 13.6805 135.038 13.3605 135.038 13.0805V9.44035H130.807C130.807 7.56028 130.807 5.92022 130.807 4.04016C130.807 3.24013 131.259 2.64011 132.368 2.64011H134.052L134.669 1.64007H130.889C130.149 1.60007 129.821 2.04008 129.821 2.48009C129.821 6.08022 129.821 9.76036 129.821 13.3605C129.821 14.8005 128.342 15.4405 126.616 15.4005C126.616 10.7604 126.616 6.44024 126.616 1.84008C126.657 0.960049 127.233 0.320006 128.794 0.320006H143.419V1.68006H138.284V1.64007ZM133.929 4.88018V5.52019H139.105V6.72023H133.929V8.1603C135.326 8.1603 137.257 8.1603 138.736 8.1603C139.311 8.2003 139.681 7.88027 139.64 7.32025V4.04016C137.955 4.04016 136.394 4.04016 134.71 4.04016C134.176 4.04016 133.929 4.40016 133.929 4.88018ZM118.934 6.96026V8.36031H96.7904V6.96026H118.934ZM103.898 9.60034L102.296 13.1605C101.72 14.5605 100.529 15.0005 98.4749 15.0005H97.2424L99.7074 9.60034H103.898ZM75.7973 0.119999H80.0699L78.5087 1.88007C78.5087 3.84014 78.5087 5.48021 78.5087 7.44028C78.5087 9.04034 76.7011 9.96035 74.4827 9.80035V3.60013H72.7572L75.7973 0.119999ZM81.5899 9.52033H85.616V11.1604H94.2844V12.6004H85.616C85.616 12.8805 85.616 13.2805 85.616 13.5605C85.5749 14.9605 83.9316 15.4405 81.5899 15.3205V12.6405H72.6339C72.6339 12.0004 72.6339 11.8404 72.6339 11.2004H81.5899V9.52033ZM79.4947 6.56024L82.1651 5.12018V0.0800077H86.1912V2.9201L89.9297 0.840044H94.9007L86.1912 5.68021C86.1912 5.96022 86.1912 6.60024 86.1912 6.88025C86.1912 7.32026 86.4788 7.56028 87.0128 7.56028H94.2844V9.04034H84.4246C83.2332 9.00033 82.2061 8.3203 82.2061 7.16026V6.56024H79.4947Z" fill="#545150"/>
<path d="M78.0241 24.721H77.2523V22.0985H74.227V24.721H73.4552V18.901H74.227V21.4297H77.2523V18.901H78.0241V24.721Z" fill="#545150"/>
<path d="M85.1777 18.901L83.2097 22.5794V24.721H82.4341V22.5982L80.5162 18.901H81.3999L82.6926 21.4785C82.6952 21.481 82.7428 21.605 82.8354 21.8505H82.8469C82.8778 21.7453 82.9305 21.6225 83.0051 21.4823L84.3557 18.901H85.1777Z" fill="#545150"/>
<path d="M91.8217 24.4806C91.3818 24.706 90.83 24.8187 90.1663 24.8187C89.3097 24.8187 88.6254 24.5545 88.1134 24.0259C87.6015 23.4949 87.3455 22.7935 87.3455 21.9219C87.3455 20.985 87.6336 20.2311 88.2099 19.66C88.7861 19.0889 89.518 18.8033 90.4056 18.8033C90.9767 18.8033 91.4487 18.8822 91.8217 19.04V19.8253C91.3947 19.5949 90.9252 19.4796 90.4133 19.4796C89.747 19.4796 89.2042 19.6963 88.7849 20.1296C88.3655 20.5605 88.1559 21.1429 88.1559 21.8768C88.1559 22.5731 88.3514 23.1267 88.7424 23.5375C89.1334 23.9458 89.6454 24.1499 90.2782 24.1499C90.8699 24.1499 91.3844 24.0197 91.8217 23.7592V24.4806Z" fill="#545150"/>
<path d="M101.973 19.4761H100.234V24.6694H99.4521V19.4761H97.7209V18.8019H101.973V19.4761Z" fill="#545150"/>
<path d="M108.093 24.6694H104.852V18.8019H107.957V19.4761H105.63V21.3549H107.786V22.0254H105.63V23.9989H108.093V24.6694Z" fill="#545150"/>
<path d="M115.344 24.427C114.9 24.6543 114.344 24.7679 113.675 24.7679C112.811 24.7679 112.121 24.5015 111.605 23.9686C111.089 23.4333 110.831 22.7262 110.831 21.8474C110.831 20.9029 111.122 20.1428 111.703 19.567C112.284 18.9913 113.021 18.7034 113.916 18.7034C114.492 18.7034 114.968 18.7829 115.344 18.942V19.7337C114.913 19.5014 114.44 19.3852 113.924 19.3852C113.252 19.3852 112.705 19.6036 112.282 20.0405C111.859 20.4749 111.648 21.062 111.648 21.8019C111.648 22.504 111.845 23.0621 112.239 23.4762C112.634 23.8878 113.15 24.0936 113.788 24.0936C114.384 24.0936 114.903 23.9623 115.344 23.6997V24.427Z" fill="#545150"/>
<path d="M122.974 24.6694H122.196V22.0254H119.146V24.6694H118.367V18.8019H119.146V21.3512H122.196V18.8019H122.974V24.6694Z" fill="#545150"/>
<path d="M131.12 24.6694H130.198L127.167 20.1049C127.082 19.9761 127.013 19.8486 126.961 19.7223H126.938C126.958 19.8536 126.969 20.1276 126.969 20.5443V24.6694H126.198V18.8019H127.175L130.124 23.2868C130.264 23.4989 130.347 23.634 130.373 23.6921H130.388C130.362 23.5255 130.349 23.2401 130.349 22.836V18.8019H131.12V24.6694Z" fill="#545150"/>
<path d="M133.898 21.8057C133.898 20.8587 134.162 20.1049 134.688 19.5443C135.215 18.9837 135.928 18.7034 136.828 18.7034C137.665 18.7034 138.34 18.9774 138.851 19.5254C139.362 20.0734 139.617 20.7867 139.617 21.6656C139.617 22.6176 139.355 23.3727 138.831 23.9308C138.307 24.4889 137.607 24.7679 136.73 24.7679C135.875 24.7679 135.189 24.4939 134.673 23.9459C134.156 23.3979 133.898 22.6845 133.898 21.8057ZM134.715 21.7451C134.715 22.4547 134.901 23.0242 135.272 23.4535C135.645 23.8803 136.131 24.0936 136.73 24.0936C137.374 24.0936 137.878 23.8891 138.244 23.48C138.612 23.0684 138.796 22.4939 138.796 21.7565C138.796 20.9989 138.616 20.4143 138.256 20.0026C137.898 19.591 137.406 19.3852 136.781 19.3852C136.166 19.3852 135.668 19.6024 135.287 20.0367C134.906 20.4711 134.715 21.0405 134.715 21.7451Z" fill="#545150"/>
<path d="M145.568 24.6694H142.39V18.8019H143.168V23.9989H145.568V24.6694Z" fill="#545150"/>
<path d="M147.886 21.8057C147.886 20.8587 148.149 20.1049 148.675 19.5443C149.202 18.9837 149.915 18.7034 150.815 18.7034C151.653 18.7034 152.327 18.9774 152.838 19.5254C153.349 20.0734 153.604 20.7867 153.604 21.6656C153.604 22.6176 153.343 23.3727 152.819 23.9308C152.295 24.4889 151.594 24.7679 150.718 24.7679C149.862 24.7679 149.176 24.4939 148.66 23.9459C148.144 23.3979 147.886 22.6845 147.886 21.8057ZM148.703 21.7451C148.703 22.4547 148.888 23.0242 149.259 23.4535C149.632 23.8803 150.119 24.0936 150.718 24.0936C151.361 24.0936 151.865 23.8891 152.231 23.48C152.599 23.0684 152.784 22.4939 152.784 21.7565C152.784 20.9989 152.603 20.4143 152.243 20.0026C151.885 19.591 151.393 19.3852 150.768 19.3852C150.154 19.3852 149.656 19.6024 149.274 20.0367C148.893 20.4711 148.703 21.0405 148.703 21.7451Z" fill="#545150"/>
<path d="M160.932 24.2679C160.331 24.6012 159.651 24.7679 158.894 24.7679C158.022 24.7679 157.32 24.5002 156.785 23.9649C156.254 23.427 155.988 22.7098 155.988 21.8133C155.988 20.9067 156.282 20.1617 156.871 19.5784C157.46 18.995 158.214 18.7034 159.135 18.7034C159.786 18.7034 160.337 18.8044 160.788 19.0064V19.8246C160.306 19.5291 159.732 19.3814 159.065 19.3814C158.409 19.3814 157.868 19.5999 157.443 20.0367C157.017 20.4736 156.805 21.0494 156.805 21.764C156.805 22.4989 157.001 23.0709 157.392 23.48C157.784 23.8891 158.313 24.0936 158.979 24.0936C159.439 24.0936 159.829 24.0078 160.15 23.8361V22.2489H158.843V21.5784H160.932V24.2679Z" fill="#545150"/>
<path d="M168 18.8019L166.016 22.5103V24.6694H165.234V22.5292L163.3 18.8019H164.191L165.495 21.4004C165.497 21.4029 165.545 21.5279 165.639 21.7754H165.65C165.681 21.6693 165.735 21.5456 165.81 21.4042L167.171 18.8019H168Z" fill="#545150"/>
</svg>
